<svg xmlns="http://www.w3.org/2000/svg" xmlns:xlink="http://www.w3.org/1999/xlink" width="161.341" height="28" viewBox="0 0 161.341 28">
  <defs>
    <linearGradient id="linear-gradient" x1="0.175" y1="0.065" x2="0.829" y2="0.941" gradientUnits="objectBoundingBox">
      <stop offset="0" stop-color="#f02b5c"/>
      <stop offset="1" stop-color="#f04856"/>
    </linearGradient>
  </defs>
  <g id="Logo_1.1" data-name="Logo 1.1" transform="translate(0 0)">
    <g id="Group_1186" data-name="Group 1186" transform="translate(39.999 5.611)">
      <g id="Group_1184" data-name="Group 1184" transform="translate(0 0.13)">
        <path id="Path_2660" data-name="Path 2660" d="M506.969,156.408V140.424h13.55v3.785h-9.381v2.66h8.511v3.742h-8.511v5.8Z" transform="translate(-506.969 -140.143)" fill="#141926"/>
        <path id="Path_2661" data-name="Path 2661" d="M648.463,156.408l-.962-2.92h-5.239l-.979,2.92h-4.3L643,140.424h3.88l5.863,15.984Zm-1.966-6.424-1.559-4.737-1.625,4.737Z" transform="translate(-624.79 -140.143)" fill="#141926"/>
        <path id="Path_2662" data-name="Path 2662" d="M799.994,151.657a7.763,7.763,0,0,1-2.422-5.905,7.9,7.9,0,0,1,2.449-5.968,8.382,8.382,0,0,1,6.039-2.358,8.955,8.955,0,0,1,7.07,3.158l-2.652,2.7a5.7,5.7,0,0,0-4.149-1.989,4.357,4.357,0,0,0-3.184,1.254,4.3,4.3,0,0,0-1.274,3.18,4.227,4.227,0,0,0,1.274,3.114,4.409,4.409,0,0,0,3.165,1.233,5.459,5.459,0,0,0,4.234-2.056l2.764,2.574a8.584,8.584,0,0,1-3.053,2.4,9.406,9.406,0,0,1-4.214.93A8.543,8.543,0,0,1,799.994,151.657Z" transform="translate(-770.318 -137.426)" fill="#141926"/>
        <path id="Path_2663" data-name="Path 2663" d="M977.83,156.408V140.424h11.91v3.743h-7.714v2.357h7.13v3.72h-7.13v2.422h7.694v3.742Z" transform="translate(-933.669 -140.143)" fill="#141926"/>
      </g>
      <g id="Group_1185" data-name="Group 1185" transform="translate(58.492 0)">
        <path id="Path_2664" data-name="Path 2664" d="M1130.639,156.408V140.424h8.067a7.312,7.312,0,0,1,5.613,2.163,8.118,8.118,0,0,1,2.074,5.861,7.972,7.972,0,0,1-2.113,5.817,7.746,7.746,0,0,1-5.782,2.142Zm2.56-2.379h5.408a4.613,4.613,0,0,0,3.748-1.58,5.979,5.979,0,0,0,1.359-4.065,5.846,5.846,0,0,0-1.359-4,4.593,4.593,0,0,0-3.721-1.58H1133.2Z" transform="translate(-1130.639 -140.013)" fill="#141926"/>
        <path id="Path_2665" data-name="Path 2665" d="M1314.373,198.2h-2.279V186.546h2.279Z" transform="translate(-1295.078 -181.809)" fill="#141926"/>
        <path id="Path_2666" data-name="Path 2666" d="M1360.246,183.83h1.805V194.3a5.839,5.839,0,0,1-1.786,4.477,6.655,6.655,0,0,1-4.727,1.664,9.145,9.145,0,0,1-5.364-1.664l1.064-1.84a7.338,7.338,0,0,0,4.261,1.385c2.56,0,4.129-1.536,4.129-3.7v-.658a5.11,5.11,0,0,1-4.037,1.546,5.83,5.83,0,0,1-6.027-5.99,5.636,5.636,0,0,1,1.76-4.262,6.063,6.063,0,0,1,4.372-1.709,4.982,4.982,0,0,1,3.991,1.589Zm-1.583,8.456a4.006,4.006,0,0,0,0-5.493,3.786,3.786,0,0,0-2.757-1.081,3.745,3.745,0,0,0-2.75,1.1,3.621,3.621,0,0,0-1.09,2.724,3.754,3.754,0,0,0,1.09,2.769,3.813,3.813,0,0,0,2.75,1.082A3.719,3.719,0,0,0,1358.663,192.286Z" transform="translate(-1329.032 -179.092)" fill="#141926"/>
        <path id="Path_2667" data-name="Path 2667" d="M1500.209,198.2h-2.272V186.546h2.272Z" transform="translate(-1463.49 -181.809)" fill="#141926"/>
        <path id="Path_2668" data-name="Path 2668" d="M1541.234,157.6a5.5,5.5,0,0,1-3.322.972c-2.6,0-3.939-1.578-3.939-4.455v-5.45H1531.9v-2.034h2.088V142.5h2.428v4.131h4.149v2.034h-4.149v5.493c0,1.492.63,2.229,1.851,2.229a4.354,4.354,0,0,0,2.127-.649Z" transform="translate(-1494.261 -141.895)" fill="#141926"/>
        <path id="Path_2669" data-name="Path 2669" d="M1636.391,183.83h1.813v11.656h-1.813l-.55-1.415a5.08,5.08,0,0,1-4.1,1.7,5.687,5.687,0,0,1-4.308-1.774,6.108,6.108,0,0,1-1.693-4.412,5.819,5.819,0,0,1,6-6.035,5.029,5.029,0,0,1,4.1,1.72Zm-1.536,8.608a4.054,4.054,0,0,0,0-5.559,3.708,3.708,0,0,0-2.784-1.147,3.647,3.647,0,0,0-2.783,1.147,4.153,4.153,0,0,0,0,5.579,3.631,3.631,0,0,0,2.783,1.126A3.713,3.713,0,0,0,1634.856,192.438Z" transform="translate(-1579.313 -179.092)" fill="#141926"/>
        <path id="Path_2670" data-name="Path 2670" d="M1777.076,152.438h-2.455V136.043h2.455Z" transform="translate(-1714.226 -136.043)" fill="#141926"/>
        <path id="Path_2671" data-name="Path 2671" d="M1492.437,137.623a1.615,1.615,0,0,1,1.694-1.579,1.6,1.6,0,1,1,0,3.2A1.623,1.623,0,0,1,1492.437,137.623Z" transform="translate(-1458.502 -136.043)" fill="#f03e5c"/>
        <path id="Path_2672" data-name="Path 2672" d="M1306.6,137.623a1.62,1.62,0,0,1,1.694-1.579,1.6,1.6,0,1,1,0,3.2A1.627,1.627,0,0,1,1306.6,137.623Z" transform="translate(-1290.093 -136.043)" fill="#f03e5c"/>
      </g>
    </g>
    <path id="Path_2673" data-name="Path 2673" d="M88.485,80.212h-2a2,2,0,0,1-2-2h0a2,2,0,0,1,2-2h20a2,2,0,0,1,2,2h0a2,2,0,0,1-2,2h-18Zm4,8h10a2,2,0,0,0,2-2h0a2,2,0,0,0-2-2h-16a2,2,0,0,0-2,2h0a2,2,0,0,0,2,2h6Zm-10,0h0a2,2,0,0,0-2,2h0a2,2,0,0,0,2,2h0a2,2,0,0,0,2-2h0A2,2,0,0,0,82.485,88.212Zm22,4h-14a2,2,0,0,0-2,2h0a2,2,0,0,0,2,2h16a2,2,0,0,0,2-2h0a2,2,0,0,0-2-2Zm4,6h0a2,2,0,0,0,2,2h0a2,2,0,0,0,2-2h0a2,2,0,0,0-2-2h0A2,2,0,0,0,108.485,98.212Zm-8,2h-14a2,2,0,0,0-2,2h0a2,2,0,0,0,2,2h20a2,2,0,0,0,2-2h0a2,2,0,0,0-2-2h-6Z" transform="translate(-80.485 -76.212)" fill="url(#linear-gradient)"/>
  </g>
</svg>
